<svg width="734" height="667" viewBox="0 0 734 667" fill="none" xmlns="http://www.w3.org/2000/svg">
<path d="M666.676 395.634V333.667C666.676 324.827 663.164 316.348 656.913 310.097C650.661 303.846 642.183 300.334 633.342 300.334C624.502 300.334 616.023 303.846 609.772 310.097C603.521 316.348 600.009 324.827 600.009 333.667V367.001H133.342V67.0007H366.676C375.516 67.0007 383.995 63.4888 390.246 57.2375C396.497 50.9863 400.009 42.5079 400.009 33.6673C400.009 24.8268 396.497 16.3483 390.246 10.0971C383.995 3.84588 375.516 0.333984 366.676 0.333984H133.342C115.661 0.333984 98.7043 7.35777 86.2019 19.8602C73.6995 32.3626 66.6757 49.3196 66.6757 67.0007V395.634L1.27568 624.534C-0.137619 629.495 -0.380423 634.716 0.56637 639.786C1.51316 644.856 3.62372 649.638 6.73195 653.754C9.84019 657.87 13.8613 661.209 18.4788 663.508C23.0964 665.806 28.1843 667.002 33.3423 667.001H700.009C705.167 667.002 710.255 665.806 714.872 663.508C719.49 661.209 723.511 657.87 726.619 653.754C729.728 649.638 731.838 644.856 732.785 639.786C733.732 634.716 733.489 629.495 732.076 624.534L666.676 395.634ZM77.5423 600.334L125.142 433.667H608.209L655.809 600.334H77.5423Z" fill="#544C60"/>
<path d="M699.732 93.8667H719.885C723.289 93.8667 726.554 95.1029 728.961 97.3033C731.369 99.5037 732.721 102.488 732.721 105.6V129.155C732.721 130.696 732.389 132.221 731.744 133.645C731.099 135.068 730.153 136.362 728.961 137.451C727.769 138.541 726.354 139.405 724.797 139.995C723.24 140.585 721.571 140.888 719.885 140.888H699.508C696.846 140.942 694.263 141.722 692.09 143.128C689.917 144.534 688.254 146.502 687.313 148.779V148.955C686.225 151.172 685.888 153.637 686.346 156.031C686.803 158.426 688.034 160.64 689.881 162.389L704.129 175.413C705.346 176.506 706.314 177.809 706.974 179.247C707.634 180.685 707.974 182.229 707.974 183.788C707.974 185.347 707.634 186.891 706.974 188.329C706.314 189.767 705.346 191.07 704.129 192.163L686.126 208.619C684.931 209.732 683.506 210.616 681.932 211.22C680.359 211.823 678.67 212.134 676.964 212.134C675.258 212.134 673.569 211.823 671.996 211.22C670.423 210.616 668.998 209.732 667.803 208.619L653.555 195.595C651.641 193.907 649.219 192.782 646.599 192.363C643.98 191.945 641.284 192.253 638.857 193.248H638.665C636.169 194.101 634.012 195.619 632.472 197.607C630.933 199.595 630.083 201.96 630.033 204.395V222.933C630.033 226.045 628.68 229.03 626.273 231.23C623.866 233.43 620.601 234.667 617.197 234.667H591.3C587.896 234.667 584.631 233.43 582.223 231.23C579.816 229.03 578.464 226.045 578.464 222.933V204.307C578.414 201.872 577.564 199.507 576.024 197.519C574.485 195.531 572.327 194.013 569.832 193.16H569.639C567.213 192.165 564.516 191.857 561.897 192.275C559.278 192.694 556.855 193.819 554.942 195.507L540.694 208.531C539.499 209.644 538.073 210.528 536.5 211.132C534.927 211.735 533.238 212.046 531.532 212.046C529.826 212.046 528.137 211.735 526.564 211.132C524.991 210.528 523.565 209.644 522.37 208.531L504.368 192.075C503.15 190.982 502.183 189.679 501.522 188.241C500.862 186.803 500.522 185.259 500.522 183.7C500.522 182.141 500.862 180.597 501.522 179.159C502.183 177.721 503.15 176.418 504.368 175.325L518.616 162.301C520.462 160.552 521.693 158.338 522.151 155.943C522.608 153.549 522.271 151.084 521.183 148.867V148.691C520.243 146.414 518.579 144.446 516.406 143.04C514.233 141.634 511.65 140.854 508.989 140.8H488.836C485.432 140.8 482.167 139.564 479.76 137.363C477.352 135.163 476 132.179 476 129.067V105.424C476 102.312 477.352 99.3277 479.76 97.1273C482.167 94.9268 485.432 93.6907 488.836 93.6907H509.213C511.88 93.6385 514.468 92.8557 516.642 91.4436C518.816 90.0315 520.476 88.0552 521.408 85.7707V85.624C522.496 83.4063 522.833 80.9415 522.375 78.5472C521.918 76.1528 520.687 73.9385 518.84 72.1893L504.592 59.1653C503.375 58.0731 502.407 56.7699 501.747 55.3319C501.087 53.894 500.747 52.3501 500.747 50.7907C500.747 49.2312 501.087 47.6873 501.747 46.2494C502.407 44.8115 503.375 43.5083 504.592 42.416L522.595 25.96C523.79 24.8469 525.215 23.9627 526.788 23.3592C528.362 22.7556 530.051 22.4447 531.757 22.4447C533.463 22.4447 535.152 22.7556 536.725 23.3592C538.298 23.9627 539.723 24.8469 540.918 25.96L555.166 38.984C557.079 40.6738 559.503 41.7985 562.125 42.2118C564.746 42.6251 567.442 42.3078 569.864 41.3013H570.056C572.547 40.442 574.7 38.9215 576.238 36.9352C577.776 34.949 578.63 32.5877 578.688 30.1547V11.7333C578.688 8.62146 580.041 5.63704 582.448 3.43662C584.855 1.23619 588.12 0 591.524 0H617.421C620.826 0 624.09 1.23619 626.498 3.43662C628.905 5.63704 630.257 8.62146 630.257 11.7333V30.3307C630.316 32.7636 631.169 35.125 632.708 37.1112C634.246 39.0975 636.399 40.618 638.889 41.4773H639.082C641.503 42.4838 644.2 42.8011 646.821 42.3878C649.442 41.9745 651.867 40.8498 653.779 39.16L668.027 26.136C669.222 25.0229 670.648 24.1387 672.221 23.5352C673.794 22.9316 675.483 22.6207 677.189 22.6207C678.895 22.6207 680.584 22.9316 682.157 23.5352C683.73 24.1387 685.156 25.0229 686.351 26.136L704.353 42.592C705.571 43.6843 706.538 44.9875 707.199 46.4254C707.859 47.8633 708.199 49.4072 708.199 50.9667C708.199 52.5261 707.859 54.07 707.199 55.5079C706.538 56.9459 705.571 58.2491 704.353 59.3413L690.105 72.3653C688.259 74.1145 687.028 76.3288 686.57 78.7232C686.113 81.1175 686.45 83.5823 687.538 85.8V85.9467C688.469 88.2312 690.13 90.2075 692.304 91.6196C694.478 93.0317 697.066 93.8145 699.732 93.8667Z" fill="#E94E44"/>
<circle cx="604" cy="117" r="34" fill="white"/>
</svg>
