<?xml version="1.0" encoding="utf-8"?>
<!-- Generator: Adobe Illustrator 24.3.0, SVG Export Plug-In . SVG Version: 6.00 Build 0)  -->
<svg version="1.1" id="Layer_1" xmlns="http://www.w3.org/2000/svg" xmlns:xlink="http://www.w3.org/1999/xlink" x="0px" y="0px"
	 viewBox="0 0 300 300" enable-background="new 0 0 300 300" xml:space="preserve">
<g>
	<g>
		<g>
			<path fill="#F4F4F4" d="M29.325,232.015c0,6.528,5.292,11.822,11.821,11.822h217.706c6.528,0,11.821-5.293,11.821-11.822V85.314
				H29.325V232.015z"/>
		</g>
		<g>
			<path fill="#C1C1C1" d="M258.852,56.163H41.146c-6.529,0-11.821,5.29-11.821,11.82v17.33h241.349v-17.33
				C270.673,61.454,265.38,56.163,258.852,56.163z"/>
		</g>
		<g>
			<path fill="#F9F9F9" d="M41.046,232.015V85.314H29.325v146.702c0,6.528,5.292,11.822,11.821,11.822h11.721
				C46.338,243.837,41.046,238.544,41.046,232.015z"/>
		</g>
		<g>
			<path fill="#D1D1D1" d="M52.867,56.163H41.146c-6.529,0-11.821,5.29-11.821,11.82v17.33h11.721v-17.33
				C41.046,61.454,46.338,56.163,52.867,56.163z"/>
		</g>
		<g>
			<path fill="#F4F4F4" d="M252.176,70.739c0,1.985-1.607,3.592-3.592,3.592c-1.985,0-3.592-1.607-3.592-3.592
				c0-1.983,1.607-3.592,3.592-3.592C250.57,67.147,252.176,68.756,252.176,70.739z"/>
		</g>
		<g>
			<path fill="#F4F4F4" d="M237.18,70.739c0,1.985-1.608,3.592-3.592,3.592c-1.984,0-3.592-1.607-3.592-3.592
				c0-1.983,1.608-3.592,3.592-3.592C235.571,67.147,237.18,68.756,237.18,70.739z"/>
		</g>
		<g>
			<path fill="#F4F4F4" d="M221.676,70.739c0,1.985-1.608,3.592-3.592,3.592c-1.983,0-3.592-1.607-3.592-3.592
				c0-1.983,1.609-3.592,3.592-3.592C220.068,67.147,221.676,68.756,221.676,70.739z"/>
		</g>
		<g>
			<path fill="#FE6F80" d="M197.655,138.773l-18.79-18.79h-28.741h-0.251h-28.741l-18.79,18.79c0,0,10.542,69.859,47.379,76.009l0,0
				C186.56,208.632,197.655,138.773,197.655,138.773z"/>
		</g>
		<g>
			<path fill="#FFA1AA" d="M114.515,138.773l18.787-18.79h-12.173l-18.787,18.79c0,0,10.539,69.859,47.377,76.009
				c2.118-0.355,4.138-0.939,6.088-1.69C123.888,200.811,114.515,138.773,114.515,138.773z"/>
		</g>
		<g>
			<path fill="#F4F4F4" d="M163.693,153.008v-8.753c0-7.55-6.143-13.694-13.694-13.694c-7.551,0-13.696,6.144-13.696,13.694v8.753
				h-2.851v33.089h33.091v-33.089H163.693z M144.986,153.008v-8.753c0-2.762,2.249-5.01,5.013-5.01c2.763,0,5.011,2.248,5.011,5.01
				v8.753H144.986z"/>
		</g>
		<g>
			<path fill="#FE6F80" d="M154.265,169.611c0,2.357-1.91,4.266-4.267,4.266c-2.357,0-4.267-1.908-4.267-4.266
				c0-2.357,1.91-4.268,4.267-4.268C152.356,165.343,154.265,167.254,154.265,169.611z"/>
		</g>
		<g>
			<rect x="46.553" y="107.742" fill="#FFC67B" width="41.089" height="41.089"/>
		</g>
		<g>
			<rect x="53.045" y="163.258" fill="#C1C1C1" width="28.737" height="8.522"/>
		</g>
		<g>
			<rect x="46.553" y="179.791" fill="#C1C1C1" width="41.089" height="8.522"/>
		</g>
		<g>
			<rect x="46.553" y="197.183" fill="#C1C1C1" width="41.089" height="8.522"/>
		</g>
		<g>
			<rect x="46.553" y="214.782" fill="#C1C1C1" width="41.089" height="8.522"/>
		</g>
		<g>
			<rect x="212.098" y="182.216" fill="#FFC67B" width="41.089" height="41.089"/>
		</g>
		<g>
			<rect x="212.098" y="159.267" fill="#C1C1C1" width="28.735" height="8.522"/>
		</g>
		<g>
			<rect x="212.098" y="142.734" fill="#C1C1C1" width="41.089" height="8.522"/>
		</g>
		<g>
			<rect x="212.098" y="125.342" fill="#C1C1C1" width="41.089" height="8.522"/>
		</g>
		<g>
			<rect x="212.098" y="107.742" fill="#C1C1C1" width="41.089" height="8.522"/>
		</g>
	</g>
	<g>
		<g>
			<path fill="#161616" d="M258.854,248.374H41.148c-9.02,0-16.359-7.337-16.359-16.359V85.314c0-2.505,2.031-4.537,4.537-4.537
				h241.347c2.506,0,4.537,2.032,4.537,4.537v106.671c0,2.505-2.031,4.537-4.537,4.537c-2.506,0-4.537-2.032-4.537-4.537V89.851
				H33.864v142.165c0,4.017,3.267,7.284,7.284,7.284h217.706c4.016,0,7.283-3.267,7.283-7.284v-18.479
				c0-2.505,2.031-4.537,4.537-4.537c2.506,0,4.537,2.032,4.537,4.537v18.479C275.211,241.036,267.873,248.374,258.854,248.374z"/>
		</g>
		<g>
			<path fill="#161616" d="M270.674,89.851H29.326c-2.506,0-4.537-2.032-4.537-4.537v-17.33c0-9.02,7.339-16.357,16.359-16.357
				h24.944c2.506,0,4.537,2.031,4.537,4.537c0,2.506-2.031,4.537-4.537,4.537H41.148c-4.017,0-7.284,3.267-7.284,7.283v12.793
				h232.273V67.983c0-4.016-3.267-7.283-7.283-7.283H87.643c-2.506,0-4.537-2.031-4.537-4.537c0-2.506,2.031-4.537,4.537-4.537
				h171.21c9.02,0,16.357,7.337,16.357,16.357v17.33C275.211,87.818,273.18,89.851,270.674,89.851z"/>
		</g>
		<g>
			<path fill="#161616" d="M252.178,70.739c0,1.985-1.608,3.592-3.592,3.592c-1.984,0-3.592-1.607-3.592-3.592
				c0-1.983,1.608-3.592,3.592-3.592C250.57,67.147,252.178,68.756,252.178,70.739z"/>
		</g>
		<g>
			<path fill="#161616" d="M237.181,70.739c0,1.985-1.608,3.592-3.592,3.592c-1.984,0-3.592-1.607-3.592-3.592
				c0-1.983,1.608-3.592,3.592-3.592C235.573,67.147,237.181,68.756,237.181,70.739z"/>
		</g>
		<g>
			<path fill="#161616" d="M221.678,70.739c0,1.985-1.608,3.592-3.592,3.592c-1.984,0-3.592-1.607-3.592-3.592
				c0-1.983,1.608-3.592,3.592-3.592C220.069,67.147,221.678,68.756,221.678,70.739z"/>
		</g>
		<g>
			<path fill="#161616" d="M149.722,219.32c-0.25,0-0.499-0.021-0.747-0.062c-39.628-6.617-50.668-76.822-51.119-79.808
				c-0.214-1.424,0.26-2.865,1.279-3.884l18.79-18.79c0.851-0.851,2.004-1.329,3.208-1.329h57.734c1.204,0,2.357,0.479,3.208,1.329
				l18.79,18.79c1.028,1.028,1.501,2.484,1.273,3.92c-0.474,2.983-12.062,73.162-51.668,79.773
				C150.221,219.299,149.972,219.32,149.722,219.32z M107.216,140.318c2.125,11.532,13.384,64.135,42.506,69.854
				c29.183-5.722,40.829-58.295,43.047-69.868l-15.781-15.783h-53.976L107.216,140.318z"/>
		</g>
		<g>
			<path fill="#161616" d="M166.545,190.634h-33.091c-2.506,0-4.537-2.032-4.537-4.537v-33.089c0-2.505,2.031-4.537,4.537-4.537
				h33.091c2.506,0,4.537,2.032,4.537,4.537v33.089C171.082,188.602,169.051,190.634,166.545,190.634z M137.991,181.56h24.017
				v-24.015h-24.017V181.56z"/>
		</g>
		<g>
			<g>
				<path fill="#161616" d="M163.694,153.008h-8.683v-8.753c0-2.762-2.248-5.01-5.011-5.01c-2.764,0-5.013,2.248-5.013,5.01v8.753
					h-8.683v-8.753c0-7.55,6.144-13.694,13.696-13.694c7.552,0,13.694,6.144,13.694,13.694V153.008z"/>
			</g>
		</g>
		<g>
			<path fill="#161616" d="M154.267,169.611c0,2.357-1.91,4.266-4.267,4.266c-2.357,0-4.267-1.908-4.267-4.266
				c0-2.357,1.91-4.268,4.267-4.268C152.357,165.343,154.267,167.254,154.267,169.611z"/>
		</g>
		<g>
			<path fill="#161616" d="M87.643,153.368H46.555c-2.506,0-4.537-2.032-4.537-4.537v-41.089c0-2.505,2.031-4.537,4.537-4.537
				h41.089c2.506,0,4.537,2.032,4.537,4.537v41.089C92.181,151.336,90.15,153.368,87.643,153.368z M51.092,144.294h32.014V112.28
				H51.092V144.294z"/>
		</g>
		<g>
			<rect x="53.046" y="163.258" fill="#161616" width="28.737" height="8.522"/>
		</g>
		<g>
			<rect x="46.555" y="179.791" fill="#161616" width="41.089" height="8.522"/>
		</g>
		<g>
			<rect x="46.555" y="197.183" fill="#161616" width="41.089" height="8.522"/>
		</g>
		<g>
			<rect x="46.555" y="214.782" fill="#161616" width="41.089" height="8.522"/>
		</g>
		<g>
			<path fill="#161616" d="M253.188,227.842H212.1c-2.506,0-4.537-2.032-4.537-4.537v-41.089c0-2.505,2.031-4.537,4.537-4.537
				h41.089c2.506,0,4.537,2.032,4.537,4.537v41.089C257.725,225.809,255.694,227.842,253.188,227.842z M216.637,218.767h32.014
				v-32.014h-32.014V218.767z"/>
		</g>
		<g>
			<rect x="212.1" y="159.267" fill="#161616" width="28.737" height="8.522"/>
		</g>
		<g>
			<rect x="212.1" y="142.734" fill="#161616" width="41.089" height="8.522"/>
		</g>
		<g>
			<rect x="212.1" y="125.342" fill="#161616" width="41.089" height="8.522"/>
		</g>
		<g>
			<rect x="212.1" y="107.742" fill="#161616" width="41.089" height="8.522"/>
		</g>
	</g>
</g>
</svg>
