<svg width="372" height="277" viewBox="0 0 372 277" fill="none" xmlns="http://www.w3.org/2000/svg">
<rect width="372" height="277" fill="white"/>
<path d="M291.754 131.578C291.754 131.578 355.472 106.103 355.472 43.6579C355.472 35.2556 353.851 27.2335 350.912 19.8847L290.99 0L232.596 19.8847C229.657 27.2335 228.036 35.2563 228.036 43.6579C228.036 107.558 291.754 131.578 291.754 131.578ZM291.635 12.5754L341.749 29.2049C343.093 33.878 343.77 38.7202 343.77 43.6586C343.77 65.8296 334.554 85.3852 316.378 101.782C306.794 110.428 297.036 115.979 291.643 118.699C291.64 118.697 291.638 118.696 291.635 118.694V12.5754H291.635Z" fill="#E94E44"/>
<path d="M318.242 229.844C318.242 231.534 317.769 233.076 317.069 234.497L241.604 158.81L268.986 131.35C263.982 128.107 258.5 124.106 252.985 119.263C252.604 118.928 252.235 118.588 251.86 118.25L181.437 188.876C179.675 190.642 176.61 190.642 174.848 188.876L57.6946 71.3828H220.395C218.089 64.4901 216.519 57.3386 215.7 49.9727H48.7143C31.0568 49.9727 16.6924 64.3783 16.6924 82.0871V229.844C16.6924 247.553 31.0568 261.959 48.7143 261.959H307.567C325.226 261.959 339.59 247.553 339.59 229.844V119.304C332.035 125.925 324.489 131.037 318.241 134.749V229.844H318.242ZM39.2076 234.497C38.514 233.075 38.0413 231.534 38.0413 229.844V82.0878C38.0413 82.0462 38.062 82.0154 38.062 81.9738L114.68 158.81L39.2076 234.497ZM63.3612 240.55L129.774 173.948L159.753 204.014C164.669 208.942 171.2 211.654 178.141 211.654C185.085 211.654 191.615 208.942 196.53 204.014L226.511 173.948L292.916 240.55H63.3612Z" fill="#544C60"/>
</svg>
